                  ::::::::::: ::::    ::::      :::      :::::::: ::::::::::: ::::    ::: :::::::::: 
                      :+:     +:+:+: :+:+:+   :+: :+:   :+:    :+:    :+:     :+:+:   :+: :+:        
                      +:+     +:+ +:+:+ +:+  +:+   +:+  +:+           +:+     :+:+:+  +:+ +:+        
                      +#+     +#+  +:+  +#+ +#++:++#++: :#:           +#+     +#+ +:+ +#+ +#++:++#   
                      +#+     +#+       +#+ +#+     +#+ +#+   +#+#    +#+     +#+  +#+#+# +#+        
                      #+#     #+#       #+# #+#     #+# #+#    #+#    #+#     #+#   #+#+# #+#        
                  ########### ###       ### ###     ###  ######## ########### ###    #### ##########   
                                                



                         Another Fine Release Brought to you from - IMAGiNE                   
                                           http://imaginegroup.me/  
    
********************************************************************************************************************                                
                                  This Is It 2009 Telesync XVID - IMAGiNE
********************************************************************************************************************

Ripper ...........: IMAGiNE                                      IMDB Rating.......:7.9/10                             
Video Codec.......: XVID                                         Release Date......:21/10/09
Audio Codec.......:MP3                                           Theatre Date......:16/10/09
Audio Bitrate.....:128                                           Runtime.......:1h 24mn
Subtitles.........:NIL                                           Language..........:ENGLISH
Resolution........:704 x 288                                      
IMDb URL..........:http://www.imdb.com/title/tt1477715/


[color=yellow]DETAILS:[/color]

General
Complete name                    : C:MoviesThis.Is.It.2009.Telesync.XVID-IMAGiNE.avi
Format                           : AVI
Format/Info                      : Audio Video Interleave
File size                        : 864MB
Duration                         : 1h 85mn
Overall bit rate                 : 1 701 Kbps
Writing library                  : VirtualDub build 30091/release

Video
ID                               : 0
Format                           : MPEG-4 Visual
Format profile                   : AdvancedSimple@L5
Format settings, BVOP            : No
Format settings, QPel            : No
Format settings, GMC             : No warppoints
Format settings, Matrix          : Default (MPEG)
Codec ID                         : XVID
Codec ID/Hint                    : XviD
Duration                         : 1h 85mn
Bit rate                         : 1 497 Kbps
Width                            : 852 pixels
Height                           : 480 pixels
Display aspect ratio             : 16:9
Frame rate                       : 29.970 fps
Resolution                       : 24 bits
Colorimetry                      : 4:2:0
Scan type                        : Progressive
Bits/(Pixel*Frame)               : 0.122
Stream size                      : 1.02 GiB (88%)
Writing library                  : XviD 1.1.2 (UTC 2006-11-01)

Audio
ID                               : 1
Format                           : MPEG Audio
Format version                   : Version 1
Format profile                   : Layer 3
Codec ID                         : 55
Codec ID/Hint                    : MP3
Duration                         : 1h 85mn
Bit rate mode                    : Constant
Bit rate                         : 192 Kbps
Channel(s)                       : 2 channels
Sampling rate                    : 44.1 KHz
Resolution                       : 16 bits
Video delay                      : 21ms
Stream size                      : 133 MiB (11%)
Alignment                        : Split accross interleaves
Interleave, duration             : 33 ms (1.00 video frame)
Interleave, preload duration     : 500 ms



[color=yellow]NOTES:[/color]

IMAGiNE bringing you another release.....
Well Well.... Don't we just looooove screener season! Here we are with another screnener/wp for you to enjoy. Not going to get into to many details about this other than its very a very watchable copy, as we are sure you will agree. So Enjoy!!
See Screens or Sample :P

[color=red] EXTRA NOTES:[/color]

We have been told today that KINGBEN is really ill in hospital and is lucky to still be
with us :(
Our thoughts go out to him and his friends and family,and wish him well
God bless ya bro ......


[color=yellow]SCREENS:[/color]


[color=yellow]GREETS:[/color]

FLAWL3SS,ViSiON,DEViSE,FUSiON,STG,SecretMyth,Lynks
And to all the other p2p grps past and present 

Special thanks to Python-Lair for the server :)





                              
     
